<mxfile host="Electron" modified="2023-06-02T17:23:11.835Z" agent="Mozilla/5.0 (Windows NT 10.0; Win64; x64) AppleWebKit/537.36 (KHTML, like Gecko) draw.io/21.2.8 Chrome/112.0.5615.165 Electron/24.2.0 Safari/537.36" etag="GMC7Bf9rbi6K_as6Da3y" version="21.2.8" type="device">
  <diagram name="Page-1" id="65RWS4c9OcAGgr6btjHW">
    <mxGraphModel dx="1418" dy="1997" grid="1" gridSize="10" guides="1" tooltips="1" connect="1" arrows="1" fold="1" page="1" pageScale="1" pageWidth="827" pageHeight="1169" math="0" shadow="0">
      <root>
        <mxCell id="0" />
        <mxCell id="1" parent="0" />
        <mxCell id="mSg4vqagDVykyoOJezJS-27" style="edgeStyle=orthogonalEdgeStyle;rounded=0;orthogonalLoop=1;jettySize=auto;html=1;exitX=0.5;exitY=1;exitDx=0;exitDy=0;exitPerimeter=0;entryX=0.5;entryY=0;entryDx=0;entryDy=0;strokeWidth=2;endArrow=none;endFill=0;" parent="1" source="mSg4vqagDVykyoOJezJS-9" target="mSg4vqagDVykyoOJezJS-10" edge="1">
          <mxGeometry relative="1" as="geometry" />
        </mxCell>
        <mxCell id="mSg4vqagDVykyoOJezJS-9" value="Начало" style="strokeWidth=2;html=1;shape=mxgraph.flowchart.terminator;whiteSpace=wrap;" parent="1" vertex="1">
          <mxGeometry x="80" y="40" width="118.11" height="39.37" as="geometry" />
        </mxCell>
        <mxCell id="mSg4vqagDVykyoOJezJS-28" style="edgeStyle=orthogonalEdgeStyle;rounded=0;orthogonalLoop=1;jettySize=auto;html=1;exitX=0.5;exitY=1;exitDx=0;exitDy=0;entryX=0.5;entryY=0;entryDx=0;entryDy=0;endArrow=none;endFill=0;strokeWidth=2;" parent="1" source="mSg4vqagDVykyoOJezJS-10" target="mSg4vqagDVykyoOJezJS-11" edge="1">
          <mxGeometry relative="1" as="geometry" />
        </mxCell>
        <mxCell id="mSg4vqagDVykyoOJezJS-10" value="Получаем IP" style="rounded=0;whiteSpace=wrap;html=1;absoluteArcSize=1;arcSize=14;strokeWidth=2;" parent="1" vertex="1">
          <mxGeometry x="80" y="90" width="118.11" height="78.74" as="geometry" />
        </mxCell>
        <mxCell id="mSg4vqagDVykyoOJezJS-29" style="edgeStyle=orthogonalEdgeStyle;rounded=0;orthogonalLoop=1;jettySize=auto;html=1;exitX=0.5;exitY=1;exitDx=0;exitDy=0;entryX=0.5;entryY=0;entryDx=0;entryDy=0;strokeWidth=2;endArrow=none;endFill=0;" parent="1" source="mSg4vqagDVykyoOJezJS-11" target="mSg4vqagDVykyoOJezJS-16" edge="1">
          <mxGeometry relative="1" as="geometry" />
        </mxCell>
        <mxCell id="mSg4vqagDVykyoOJezJS-11" value="Получаем имя устройства" style="rounded=0;whiteSpace=wrap;html=1;absoluteArcSize=1;arcSize=14;strokeWidth=2;" parent="1" vertex="1">
          <mxGeometry x="80" y="180" width="118.11" height="78.74" as="geometry" />
        </mxCell>
        <mxCell id="mSg4vqagDVykyoOJezJS-30" style="edgeStyle=orthogonalEdgeStyle;rounded=0;orthogonalLoop=1;jettySize=auto;html=1;exitX=0.5;exitY=1;exitDx=0;exitDy=0;entryX=0.5;entryY=0;entryDx=0;entryDy=0;entryPerimeter=0;strokeWidth=2;endArrow=none;endFill=0;" parent="1" source="mSg4vqagDVykyoOJezJS-16" target="mSg4vqagDVykyoOJezJS-18" edge="1">
          <mxGeometry relative="1" as="geometry" />
        </mxCell>
        <mxCell id="mSg4vqagDVykyoOJezJS-16" value="Находим кандидата в БД по логину" style="rounded=0;whiteSpace=wrap;html=1;absoluteArcSize=1;arcSize=14;strokeWidth=2;" parent="1" vertex="1">
          <mxGeometry x="80" y="270" width="118.11" height="78.74" as="geometry" />
        </mxCell>
        <mxCell id="mSg4vqagDVykyoOJezJS-31" style="edgeStyle=orthogonalEdgeStyle;rounded=0;orthogonalLoop=1;jettySize=auto;html=1;exitX=0.5;exitY=1;exitDx=0;exitDy=0;exitPerimeter=0;entryX=0.5;entryY=0;entryDx=0;entryDy=0;endArrow=none;endFill=0;strokeWidth=2;" parent="1" source="mSg4vqagDVykyoOJezJS-18" target="mSg4vqagDVykyoOJezJS-19" edge="1">
          <mxGeometry relative="1" as="geometry" />
        </mxCell>
        <mxCell id="mSg4vqagDVykyoOJezJS-32" style="edgeStyle=orthogonalEdgeStyle;rounded=0;orthogonalLoop=1;jettySize=auto;html=1;exitX=1;exitY=0.5;exitDx=0;exitDy=0;exitPerimeter=0;entryX=0.5;entryY=0;entryDx=0;entryDy=0;strokeWidth=2;endArrow=none;endFill=0;" parent="1" source="mSg4vqagDVykyoOJezJS-18" target="mSg4vqagDVykyoOJezJS-20" edge="1">
          <mxGeometry relative="1" as="geometry" />
        </mxCell>
        <mxCell id="mSg4vqagDVykyoOJezJS-18" value="Кандитат&lt;br&gt;по логину&lt;br&gt;найден" style="strokeWidth=2;html=1;shape=mxgraph.flowchart.decision;whiteSpace=wrap;" parent="1" vertex="1">
          <mxGeometry x="80" y="360" width="118.11" height="78.74" as="geometry" />
        </mxCell>
        <mxCell id="mSg4vqagDVykyoOJezJS-35" style="edgeStyle=orthogonalEdgeStyle;rounded=0;orthogonalLoop=1;jettySize=auto;html=1;exitX=0.5;exitY=1;exitDx=0;exitDy=0;entryX=0.5;entryY=0;entryDx=0;entryDy=0;entryPerimeter=0;strokeWidth=2;endArrow=none;endFill=0;" parent="1" source="mSg4vqagDVykyoOJezJS-19" target="mSg4vqagDVykyoOJezJS-26" edge="1">
          <mxGeometry relative="1" as="geometry" />
        </mxCell>
        <mxCell id="mSg4vqagDVykyoOJezJS-19" value="Вызов исключения&lt;br&gt;HttpException&lt;br&gt;(cтатус: 409, cообщение: логин занят)" style="rounded=0;whiteSpace=wrap;html=1;absoluteArcSize=1;arcSize=14;strokeWidth=2;" parent="1" vertex="1">
          <mxGeometry x="80" y="450" width="118.11" height="78.74" as="geometry" />
        </mxCell>
        <mxCell id="mSg4vqagDVykyoOJezJS-33" style="edgeStyle=orthogonalEdgeStyle;rounded=0;orthogonalLoop=1;jettySize=auto;html=1;exitX=0.5;exitY=1;exitDx=0;exitDy=0;entryX=0.5;entryY=0;entryDx=0;entryDy=0;entryPerimeter=0;endArrow=none;endFill=0;strokeWidth=2;" parent="1" source="mSg4vqagDVykyoOJezJS-20" target="mSg4vqagDVykyoOJezJS-22" edge="1">
          <mxGeometry relative="1" as="geometry" />
        </mxCell>
        <mxCell id="mSg4vqagDVykyoOJezJS-20" value="Находим кандидата в БД по&lt;br&gt;электронной почте" style="rounded=0;whiteSpace=wrap;html=1;absoluteArcSize=1;arcSize=14;strokeWidth=2;" parent="1" vertex="1">
          <mxGeometry x="240" y="450" width="118.11" height="78.74" as="geometry" />
        </mxCell>
        <mxCell id="mSg4vqagDVykyoOJezJS-36" style="edgeStyle=orthogonalEdgeStyle;rounded=0;orthogonalLoop=1;jettySize=auto;html=1;exitX=0.5;exitY=1;exitDx=0;exitDy=0;exitPerimeter=0;entryX=0.5;entryY=0;entryDx=0;entryDy=0;strokeWidth=2;endArrow=none;endFill=0;" parent="1" source="mSg4vqagDVykyoOJezJS-22" target="mSg4vqagDVykyoOJezJS-23" edge="1">
          <mxGeometry relative="1" as="geometry" />
        </mxCell>
        <mxCell id="mSg4vqagDVykyoOJezJS-37" style="edgeStyle=orthogonalEdgeStyle;rounded=0;orthogonalLoop=1;jettySize=auto;html=1;exitX=1;exitY=0.5;exitDx=0;exitDy=0;exitPerimeter=0;entryX=0.5;entryY=0;entryDx=0;entryDy=0;strokeWidth=2;endArrow=none;endFill=0;" parent="1" source="mSg4vqagDVykyoOJezJS-22" target="mSg4vqagDVykyoOJezJS-24" edge="1">
          <mxGeometry relative="1" as="geometry" />
        </mxCell>
        <mxCell id="mSg4vqagDVykyoOJezJS-22" value="Кандитат&lt;br&gt;по email&lt;br&gt;найден" style="strokeWidth=2;html=1;shape=mxgraph.flowchart.decision;whiteSpace=wrap;" parent="1" vertex="1">
          <mxGeometry x="240" y="540" width="118.11" height="78.74" as="geometry" />
        </mxCell>
        <mxCell id="mSg4vqagDVykyoOJezJS-63" style="edgeStyle=orthogonalEdgeStyle;rounded=0;orthogonalLoop=1;jettySize=auto;html=1;exitX=0.5;exitY=1;exitDx=0;exitDy=0;entryX=0.5;entryY=0;entryDx=0;entryDy=0;entryPerimeter=0;endArrow=none;endFill=0;strokeWidth=2;" parent="1" source="mSg4vqagDVykyoOJezJS-23" target="mSg4vqagDVykyoOJezJS-26" edge="1">
          <mxGeometry relative="1" as="geometry">
            <Array as="points">
              <mxPoint x="299" y="1040" />
              <mxPoint x="139" y="1040" />
            </Array>
          </mxGeometry>
        </mxCell>
        <mxCell id="mSg4vqagDVykyoOJezJS-23" value="Вызов исключения&lt;br&gt;HttpException&lt;br&gt;(статус: 409,&lt;br&gt;сообщение: email занят)" style="rounded=0;whiteSpace=wrap;html=1;absoluteArcSize=1;arcSize=14;strokeWidth=2;" parent="1" vertex="1">
          <mxGeometry x="240" y="630" width="118.11" height="78.74" as="geometry" />
        </mxCell>
        <mxCell id="mSg4vqagDVykyoOJezJS-38" style="edgeStyle=orthogonalEdgeStyle;rounded=0;orthogonalLoop=1;jettySize=auto;html=1;exitX=0.5;exitY=1;exitDx=0;exitDy=0;entryX=0.5;entryY=0;entryDx=0;entryDy=0;strokeWidth=2;endArrow=none;endFill=0;" parent="1" source="mSg4vqagDVykyoOJezJS-24" target="mSg4vqagDVykyoOJezJS-25" edge="1">
          <mxGeometry relative="1" as="geometry" />
        </mxCell>
        <mxCell id="mSg4vqagDVykyoOJezJS-24" value="Получаем хэш пароля" style="rounded=0;whiteSpace=wrap;html=1;absoluteArcSize=1;arcSize=14;strokeWidth=2;" parent="1" vertex="1">
          <mxGeometry x="400" y="630" width="118.11" height="78.74" as="geometry" />
        </mxCell>
        <mxCell id="mSg4vqagDVykyoOJezJS-60" style="edgeStyle=orthogonalEdgeStyle;rounded=0;orthogonalLoop=1;jettySize=auto;html=1;exitX=0.5;exitY=1;exitDx=0;exitDy=0;entryX=0.5;entryY=0;entryDx=0;entryDy=0;entryPerimeter=0;endArrow=none;endFill=0;strokeWidth=2;" parent="1" source="mSg4vqagDVykyoOJezJS-25" target="mSg4vqagDVykyoOJezJS-57" edge="1">
          <mxGeometry relative="1" as="geometry" />
        </mxCell>
        <mxCell id="mSg4vqagDVykyoOJezJS-25" value="Выполнение транзакции" style="verticalLabelPosition=middle;verticalAlign=middle;html=1;shape=process;whiteSpace=wrap;rounded=0;size=0.14;arcSize=6;labelPosition=center;align=center;strokeWidth=2;" parent="1" vertex="1">
          <mxGeometry x="400" y="740" width="118.11" height="78.74" as="geometry" />
        </mxCell>
        <mxCell id="mSg4vqagDVykyoOJezJS-26" value="Конец" style="strokeWidth=2;html=1;shape=mxgraph.flowchart.terminator;whiteSpace=wrap;" parent="1" vertex="1">
          <mxGeometry x="80" y="1050" width="118.11" height="39.37" as="geometry" />
        </mxCell>
        <mxCell id="mSg4vqagDVykyoOJezJS-41" value="" style="endArrow=classic;html=1;rounded=0;strokeWidth=2;" parent="1" edge="1">
          <mxGeometry width="50" height="50" relative="1" as="geometry">
            <mxPoint x="300" y="1040" as="sourcePoint" />
            <mxPoint x="260" y="1040" as="targetPoint" />
          </mxGeometry>
        </mxCell>
        <mxCell id="mSg4vqagDVykyoOJezJS-42" value="" style="endArrow=classic;html=1;rounded=0;strokeWidth=2;" parent="1" edge="1">
          <mxGeometry width="50" height="50" relative="1" as="geometry">
            <mxPoint x="620" y="1040" as="sourcePoint" />
            <mxPoint x="580" y="1040" as="targetPoint" />
          </mxGeometry>
        </mxCell>
        <mxCell id="mSg4vqagDVykyoOJezJS-75" style="edgeStyle=orthogonalEdgeStyle;rounded=0;orthogonalLoop=1;jettySize=auto;html=1;exitX=0.5;exitY=1;exitDx=0;exitDy=0;exitPerimeter=0;entryX=0.5;entryY=0;entryDx=0;entryDy=0;strokeWidth=2;endArrow=none;endFill=0;" parent="1" source="mSg4vqagDVykyoOJezJS-43" target="mSg4vqagDVykyoOJezJS-44" edge="1">
          <mxGeometry relative="1" as="geometry" />
        </mxCell>
        <mxCell id="mSg4vqagDVykyoOJezJS-43" value="Начало" style="strokeWidth=2;html=1;shape=mxgraph.flowchart.terminator;whiteSpace=wrap;" parent="1" vertex="1">
          <mxGeometry x="560" width="118.11" height="39.37" as="geometry" />
        </mxCell>
        <mxCell id="mSg4vqagDVykyoOJezJS-76" style="edgeStyle=orthogonalEdgeStyle;rounded=0;orthogonalLoop=1;jettySize=auto;html=1;exitX=0.5;exitY=1;exitDx=0;exitDy=0;entryX=0.5;entryY=0;entryDx=0;entryDy=0;strokeWidth=2;endArrow=none;endFill=0;" parent="1" source="mSg4vqagDVykyoOJezJS-44" target="mSg4vqagDVykyoOJezJS-45" edge="1">
          <mxGeometry relative="1" as="geometry" />
        </mxCell>
        <mxCell id="mSg4vqagDVykyoOJezJS-44" value="Сохрание&lt;br&gt;сущности&amp;nbsp;user&lt;br&gt;в таблицу DP_CTL_Users" style="rounded=0;whiteSpace=wrap;html=1;absoluteArcSize=1;arcSize=14;strokeWidth=2;" parent="1" vertex="1">
          <mxGeometry x="560" y="50" width="118.11" height="78.74" as="geometry" />
        </mxCell>
        <mxCell id="mSg4vqagDVykyoOJezJS-77" style="edgeStyle=orthogonalEdgeStyle;rounded=0;orthogonalLoop=1;jettySize=auto;html=1;exitX=0.5;exitY=1;exitDx=0;exitDy=0;entryX=0.5;entryY=0;entryDx=0;entryDy=0;strokeWidth=2;endArrow=none;endFill=0;" parent="1" source="mSg4vqagDVykyoOJezJS-45" target="mSg4vqagDVykyoOJezJS-46" edge="1">
          <mxGeometry relative="1" as="geometry" />
        </mxCell>
        <mxCell id="mSg4vqagDVykyoOJezJS-45" value="Получаем id&lt;br&gt;из сущности" style="rounded=0;whiteSpace=wrap;html=1;absoluteArcSize=1;arcSize=14;strokeWidth=2;" parent="1" vertex="1">
          <mxGeometry x="561.89" y="140" width="118.11" height="78.74" as="geometry" />
        </mxCell>
        <mxCell id="mSg4vqagDVykyoOJezJS-78" style="edgeStyle=orthogonalEdgeStyle;rounded=0;orthogonalLoop=1;jettySize=auto;html=1;exitX=0.5;exitY=1;exitDx=0;exitDy=0;entryX=0.5;entryY=0;entryDx=0;entryDy=0;strokeWidth=2;endArrow=none;endFill=0;" parent="1" source="mSg4vqagDVykyoOJezJS-46" target="mSg4vqagDVykyoOJezJS-47" edge="1">
          <mxGeometry relative="1" as="geometry" />
        </mxCell>
        <mxCell id="mSg4vqagDVykyoOJezJS-46" value="генерируем токен активации" style="rounded=0;whiteSpace=wrap;html=1;absoluteArcSize=1;arcSize=14;strokeWidth=2;" parent="1" vertex="1">
          <mxGeometry x="561.89" y="230" width="118.11" height="78.74" as="geometry" />
        </mxCell>
        <mxCell id="mSg4vqagDVykyoOJezJS-79" style="edgeStyle=orthogonalEdgeStyle;rounded=0;orthogonalLoop=1;jettySize=auto;html=1;exitX=0.5;exitY=1;exitDx=0;exitDy=0;entryX=0.5;entryY=0;entryDx=0;entryDy=0;strokeWidth=2;endArrow=none;endFill=0;" parent="1" source="mSg4vqagDVykyoOJezJS-47" target="mSg4vqagDVykyoOJezJS-48" edge="1">
          <mxGeometry relative="1" as="geometry" />
        </mxCell>
        <mxCell id="mSg4vqagDVykyoOJezJS-47" value="генерируем токен доступа" style="rounded=0;whiteSpace=wrap;html=1;absoluteArcSize=1;arcSize=14;strokeWidth=2;" parent="1" vertex="1">
          <mxGeometry x="561.89" y="320" width="118.11" height="78.74" as="geometry" />
        </mxCell>
        <mxCell id="mSg4vqagDVykyoOJezJS-80" style="edgeStyle=orthogonalEdgeStyle;rounded=0;orthogonalLoop=1;jettySize=auto;html=1;exitX=0.5;exitY=1;exitDx=0;exitDy=0;entryX=0.5;entryY=0;entryDx=0;entryDy=0;endArrow=none;endFill=0;strokeWidth=2;" parent="1" source="mSg4vqagDVykyoOJezJS-48" target="mSg4vqagDVykyoOJezJS-49" edge="1">
          <mxGeometry relative="1" as="geometry" />
        </mxCell>
        <mxCell id="mSg4vqagDVykyoOJezJS-48" value="генерируем токен обновления" style="rounded=0;whiteSpace=wrap;html=1;absoluteArcSize=1;arcSize=14;strokeWidth=2;" parent="1" vertex="1">
          <mxGeometry x="561.89" y="410" width="118.11" height="78.74" as="geometry" />
        </mxCell>
        <mxCell id="mSg4vqagDVykyoOJezJS-81" style="edgeStyle=orthogonalEdgeStyle;rounded=0;orthogonalLoop=1;jettySize=auto;html=1;exitX=0.5;exitY=1;exitDx=0;exitDy=0;entryX=0.5;entryY=0;entryDx=0;entryDy=0;endArrow=none;endFill=0;strokeWidth=2;" parent="1" source="mSg4vqagDVykyoOJezJS-49" target="mSg4vqagDVykyoOJezJS-50" edge="1">
          <mxGeometry relative="1" as="geometry" />
        </mxCell>
        <mxCell id="mSg4vqagDVykyoOJezJS-49" value="сохраняем id и токен активации в таблицу&lt;br&gt;DP_DOC&lt;br&gt;_ActivationAccount" style="rounded=0;whiteSpace=wrap;html=1;absoluteArcSize=1;arcSize=14;strokeWidth=2;" parent="1" vertex="1">
          <mxGeometry x="561.89" y="500" width="118.11" height="78.74" as="geometry" />
        </mxCell>
        <mxCell id="mSg4vqagDVykyoOJezJS-82" style="edgeStyle=orthogonalEdgeStyle;rounded=0;orthogonalLoop=1;jettySize=auto;html=1;exitX=0.5;exitY=1;exitDx=0;exitDy=0;entryX=0.5;entryY=0;entryDx=0;entryDy=0;endArrow=none;endFill=0;strokeWidth=2;" parent="1" source="mSg4vqagDVykyoOJezJS-50" target="mSg4vqagDVykyoOJezJS-53" edge="1">
          <mxGeometry relative="1" as="geometry" />
        </mxCell>
        <mxCell id="mSg4vqagDVykyoOJezJS-50" value="сохраняем данные сессии в таблицу&lt;br&gt;DP_DOC_Sessions" style="rounded=0;whiteSpace=wrap;html=1;absoluteArcSize=1;arcSize=14;strokeWidth=2;" parent="1" vertex="1">
          <mxGeometry x="561.89" y="590" width="118.11" height="78.74" as="geometry" />
        </mxCell>
        <mxCell id="mSg4vqagDVykyoOJezJS-85" style="edgeStyle=orthogonalEdgeStyle;rounded=0;orthogonalLoop=1;jettySize=auto;html=1;exitX=0;exitY=0.5;exitDx=0;exitDy=0;exitPerimeter=0;entryX=1;entryY=0.5;entryDx=0;entryDy=0;endArrow=none;endFill=0;strokeWidth=2;dashed=1;" parent="1" source="mSg4vqagDVykyoOJezJS-51" target="mSg4vqagDVykyoOJezJS-50" edge="1">
          <mxGeometry relative="1" as="geometry" />
        </mxCell>
        <mxCell id="mSg4vqagDVykyoOJezJS-51" value="Сохраняем в таблицу:&lt;br&gt;- токен доступа&lt;br&gt;- токен обновления&lt;br&gt;- имя устройства&lt;br&gt;- IP адрес&lt;br&gt;- id пользователя" style="strokeWidth=2;html=1;shape=mxgraph.flowchart.annotation_2;align=left;labelPosition=right;pointerEvents=1;" parent="1" vertex="1">
          <mxGeometry x="700" y="580" width="10" height="100" as="geometry" />
        </mxCell>
        <mxCell id="mSg4vqagDVykyoOJezJS-84" style="edgeStyle=orthogonalEdgeStyle;rounded=0;orthogonalLoop=1;jettySize=auto;html=1;exitX=0;exitY=0.5;exitDx=0;exitDy=0;exitPerimeter=0;entryX=1;entryY=0.5;entryDx=0;entryDy=0;endArrow=none;endFill=0;strokeWidth=2;dashed=1;" parent="1" source="mSg4vqagDVykyoOJezJS-52" target="mSg4vqagDVykyoOJezJS-49" edge="1">
          <mxGeometry relative="1" as="geometry" />
        </mxCell>
        <mxCell id="mSg4vqagDVykyoOJezJS-52" value="Сохраняем в таблицу:&lt;br&gt;- токен активации&lt;br&gt;- id пользователя" style="strokeWidth=2;html=1;shape=mxgraph.flowchart.annotation_2;align=left;labelPosition=right;pointerEvents=1;" parent="1" vertex="1">
          <mxGeometry x="700" y="515" width="10" height="58.74" as="geometry" />
        </mxCell>
        <mxCell id="mSg4vqagDVykyoOJezJS-83" style="edgeStyle=orthogonalEdgeStyle;rounded=0;orthogonalLoop=1;jettySize=auto;html=1;exitX=0.5;exitY=1;exitDx=0;exitDy=0;entryX=0.5;entryY=0;entryDx=0;entryDy=0;entryPerimeter=0;strokeWidth=2;endArrow=none;endFill=0;" parent="1" source="mSg4vqagDVykyoOJezJS-53" target="mSg4vqagDVykyoOJezJS-54" edge="1">
          <mxGeometry relative="1" as="geometry" />
        </mxCell>
        <mxCell id="mSg4vqagDVykyoOJezJS-53" value="Отправляем письмо подтверждения электронной поты" style="rounded=0;whiteSpace=wrap;html=1;absoluteArcSize=1;arcSize=14;strokeWidth=2;" parent="1" vertex="1">
          <mxGeometry x="561.89" y="680" width="118.11" height="78.74" as="geometry" />
        </mxCell>
        <mxCell id="mSg4vqagDVykyoOJezJS-54" value="Конец" style="strokeWidth=2;html=1;shape=mxgraph.flowchart.terminator;whiteSpace=wrap;" parent="1" vertex="1">
          <mxGeometry x="560" y="770.63" width="118.11" height="39.37" as="geometry" />
        </mxCell>
        <mxCell id="mSg4vqagDVykyoOJezJS-56" style="edgeStyle=orthogonalEdgeStyle;rounded=0;orthogonalLoop=1;jettySize=auto;html=1;exitX=0;exitY=0.5;exitDx=0;exitDy=0;exitPerimeter=0;entryX=1;entryY=0.5;entryDx=0;entryDy=0;entryPerimeter=0;endArrow=none;endFill=0;strokeWidth=2;dashed=1;" parent="1" source="mSg4vqagDVykyoOJezJS-55" target="mSg4vqagDVykyoOJezJS-9" edge="1">
          <mxGeometry relative="1" as="geometry" />
        </mxCell>
        <mxCell id="mSg4vqagDVykyoOJezJS-55" value="Функция регистрации пользователя&lt;br&gt;принимает параметры&lt;br&gt;- dto&lt;br&gt;- req&lt;br&gt;&lt;br&gt;Из тела HTTP запрос получен dto:&lt;br&gt;- логин&lt;br&gt;- электронная почта&lt;br&gt;- пароль&lt;br&gt;- УНП&lt;br&gt;- Полное наименование юр. лица&lt;br&gt;- Краткое наименование юр. лица&lt;br&gt;- адрес&lt;br&gt;- телефон приемной&lt;br&gt;- имя&lt;br&gt;- фамилия&lt;br&gt;- отчество" style="strokeWidth=2;html=1;shape=mxgraph.flowchart.annotation_2;align=left;labelPosition=right;pointerEvents=1;" parent="1" vertex="1">
          <mxGeometry x="240" y="40" width="10" height="260" as="geometry" />
        </mxCell>
        <mxCell id="mSg4vqagDVykyoOJezJS-61" style="edgeStyle=orthogonalEdgeStyle;rounded=0;orthogonalLoop=1;jettySize=auto;html=1;exitX=0.5;exitY=1;exitDx=0;exitDy=0;exitPerimeter=0;entryX=0.5;entryY=0;entryDx=0;entryDy=0;endArrow=none;endFill=0;strokeWidth=2;" parent="1" source="mSg4vqagDVykyoOJezJS-57" target="mSg4vqagDVykyoOJezJS-58" edge="1">
          <mxGeometry relative="1" as="geometry" />
        </mxCell>
        <mxCell id="mSg4vqagDVykyoOJezJS-62" style="edgeStyle=orthogonalEdgeStyle;rounded=0;orthogonalLoop=1;jettySize=auto;html=1;exitX=1;exitY=0.5;exitDx=0;exitDy=0;exitPerimeter=0;strokeWidth=2;endArrow=none;endFill=0;" parent="1" source="mSg4vqagDVykyoOJezJS-57" target="mSg4vqagDVykyoOJezJS-59" edge="1">
          <mxGeometry relative="1" as="geometry" />
        </mxCell>
        <mxCell id="mSg4vqagDVykyoOJezJS-57" value="Транзакция&lt;br&gt;не выполнена" style="strokeWidth=2;html=1;shape=mxgraph.flowchart.decision;whiteSpace=wrap;" parent="1" vertex="1">
          <mxGeometry x="400" y="840.31" width="118.11" height="78.74" as="geometry" />
        </mxCell>
        <mxCell id="mSg4vqagDVykyoOJezJS-65" style="edgeStyle=orthogonalEdgeStyle;rounded=0;orthogonalLoop=1;jettySize=auto;html=1;exitX=0.5;exitY=1;exitDx=0;exitDy=0;endArrow=none;endFill=0;strokeWidth=2;" parent="1" source="mSg4vqagDVykyoOJezJS-58" target="mSg4vqagDVykyoOJezJS-26" edge="1">
          <mxGeometry relative="1" as="geometry">
            <Array as="points">
              <mxPoint x="459" y="1040" />
              <mxPoint x="139" y="1040" />
            </Array>
          </mxGeometry>
        </mxCell>
        <mxCell id="mSg4vqagDVykyoOJezJS-58" value="Вызов исключения&lt;br style=&quot;border-color: var(--border-color);&quot;&gt;HttpException&lt;br&gt;(статус 409, сообщение: ошибка транзакции)" style="rounded=0;whiteSpace=wrap;html=1;absoluteArcSize=1;arcSize=14;strokeWidth=2;" parent="1" vertex="1">
          <mxGeometry x="400" y="930" width="118.11" height="78.74" as="geometry" />
        </mxCell>
        <mxCell id="mSg4vqagDVykyoOJezJS-66" style="edgeStyle=orthogonalEdgeStyle;rounded=0;orthogonalLoop=1;jettySize=auto;html=1;exitX=0.5;exitY=1;exitDx=0;exitDy=0;entryX=0.5;entryY=0;entryDx=0;entryDy=0;entryPerimeter=0;endArrow=none;endFill=0;strokeWidth=2;" parent="1" source="mSg4vqagDVykyoOJezJS-59" target="mSg4vqagDVykyoOJezJS-26" edge="1">
          <mxGeometry relative="1" as="geometry">
            <Array as="points">
              <mxPoint x="619" y="1040" />
              <mxPoint x="139" y="1040" />
            </Array>
          </mxGeometry>
        </mxCell>
        <mxCell id="mSg4vqagDVykyoOJezJS-59" value="Статус 201&lt;br&gt;отправляем токен доступа и токен обновления" style="rounded=0;whiteSpace=wrap;html=1;absoluteArcSize=1;arcSize=14;strokeWidth=2;" parent="1" vertex="1">
          <mxGeometry x="560" y="930" width="118.11" height="78.74" as="geometry" />
        </mxCell>
        <mxCell id="mSg4vqagDVykyoOJezJS-67" value="" style="endArrow=classic;html=1;rounded=0;strokeWidth=2;" parent="1" edge="1">
          <mxGeometry width="50" height="50" relative="1" as="geometry">
            <mxPoint x="460" y="1040" as="sourcePoint" />
            <mxPoint x="420" y="1040" as="targetPoint" />
          </mxGeometry>
        </mxCell>
        <mxCell id="mSg4vqagDVykyoOJezJS-68" value="Да" style="text;html=1;align=center;verticalAlign=middle;resizable=0;points=[];autosize=1;strokeColor=none;fillColor=none;" parent="1" vertex="1">
          <mxGeometry x="80" y="420" width="40" height="30" as="geometry" />
        </mxCell>
        <mxCell id="mSg4vqagDVykyoOJezJS-69" value="Да" style="text;html=1;align=center;verticalAlign=middle;resizable=0;points=[];autosize=1;strokeColor=none;fillColor=none;" parent="1" vertex="1">
          <mxGeometry x="240" y="600" width="40" height="30" as="geometry" />
        </mxCell>
        <mxCell id="mSg4vqagDVykyoOJezJS-70" value="Да" style="text;html=1;align=center;verticalAlign=middle;resizable=0;points=[];autosize=1;strokeColor=none;fillColor=none;" parent="1" vertex="1">
          <mxGeometry x="400" y="900" width="40" height="30" as="geometry" />
        </mxCell>
        <mxCell id="mSg4vqagDVykyoOJezJS-71" value="Нет" style="text;html=1;align=center;verticalAlign=middle;resizable=0;points=[];autosize=1;strokeColor=none;fillColor=none;" parent="1" vertex="1">
          <mxGeometry x="200" y="368.74" width="40" height="30" as="geometry" />
        </mxCell>
        <mxCell id="mSg4vqagDVykyoOJezJS-72" value="Нет" style="text;html=1;align=center;verticalAlign=middle;resizable=0;points=[];autosize=1;strokeColor=none;fillColor=none;" parent="1" vertex="1">
          <mxGeometry x="360" y="548.74" width="40" height="30" as="geometry" />
        </mxCell>
        <mxCell id="mSg4vqagDVykyoOJezJS-73" value="Нет" style="text;html=1;align=center;verticalAlign=middle;resizable=0;points=[];autosize=1;strokeColor=none;fillColor=none;" parent="1" vertex="1">
          <mxGeometry x="518.11" y="850" width="40" height="30" as="geometry" />
        </mxCell>
        <mxCell id="mSg4vqagDVykyoOJezJS-90" style="edgeStyle=orthogonalEdgeStyle;rounded=0;orthogonalLoop=1;jettySize=auto;html=1;exitX=0;exitY=0.5;exitDx=0;exitDy=0;exitPerimeter=0;entryX=1;entryY=0.5;entryDx=0;entryDy=0;entryPerimeter=0;strokeWidth=2;endArrow=none;endFill=0;dashed=1;" parent="1" source="mSg4vqagDVykyoOJezJS-86" target="mSg4vqagDVykyoOJezJS-43" edge="1">
          <mxGeometry relative="1" as="geometry" />
        </mxCell>
        <mxCell id="mSg4vqagDVykyoOJezJS-86" value="Начало транзакции" style="strokeWidth=2;html=1;shape=mxgraph.flowchart.annotation_2;align=left;labelPosition=right;pointerEvents=1;" parent="1" vertex="1">
          <mxGeometry x="700" y="4.529999999999999" width="10" height="30.32" as="geometry" />
        </mxCell>
        <mxCell id="mSg4vqagDVykyoOJezJS-88" style="edgeStyle=orthogonalEdgeStyle;rounded=0;orthogonalLoop=1;jettySize=auto;html=1;exitX=0;exitY=0.5;exitDx=0;exitDy=0;exitPerimeter=0;entryX=1;entryY=0.5;entryDx=0;entryDy=0;entryPerimeter=0;endArrow=none;endFill=0;strokeWidth=2;dashed=1;" parent="1" source="mSg4vqagDVykyoOJezJS-87" target="mSg4vqagDVykyoOJezJS-54" edge="1">
          <mxGeometry relative="1" as="geometry" />
        </mxCell>
        <mxCell id="mSg4vqagDVykyoOJezJS-87" value="Конец транзакции" style="strokeWidth=2;html=1;shape=mxgraph.flowchart.annotation_2;align=left;labelPosition=right;pointerEvents=1;" parent="1" vertex="1">
          <mxGeometry x="700" y="775.16" width="10" height="30.32" as="geometry" />
        </mxCell>
      </root>
    </mxGraphModel>
  </diagram>
</mxfile>
